# xmcd
#
# Track frame offsets: 
#        150
#        13822
#        28942
#        40024
#        56278
#        70803
#        94583
#        120719
#        134055
#        161210
#
# Disc length: 2632 seconds
#
# Revision: 1
# Processed by: cddbd v1.5.2PL0 Copyright (c) Steve Scherf et al.
# Submitted via: ExactAudioCopy v1.0b3
#
DISCID=880a460a
DTITLE=Shane Dwight - Plays The Blues
DYEAR=2009
DGENRE=Blues
TTITLE0=Bad News Morning
TTITLE1=You're Gonna Want Me
TTITLE2=She's So Sweet
TTITLE3=Standing
TTITLE4=Have Some Of That
TTITLE5=High Time
TTITLE6=Pretty, Young, and Mean
TTITLE7=Don't "B" Flat
TTITLE8=Ode to Albert
TTITLE9=Boogie King
EXTD=
EXTT0=
EXTT1=
EXTT2=
EXTT3=
EXTT4=
EXTT5=
EXTT6=
EXTT7=
EXTT8=
EXTT9=
PLAYORDER=
